<mxfile host="app.diagrams.net" modified="2022-12-27T09:06:27.350Z" agent="5.0 (Windows NT 10.0; Win64; x64) AppleWebKit/537.36 (KHTML, like Gecko) Chrome/108.0.0.0 Safari/537.36" etag="BUcWEPO03JwMNz2Ks74U" version="20.7.4" type="github">
  <diagram id="ldcJrKCrVuUjSrpajVYe" name="第 1 页">
    <mxGraphModel dx="2705" dy="968" grid="1" gridSize="10" guides="1" tooltips="1" connect="1" arrows="1" fold="1" page="1" pageScale="1" pageWidth="827" pageHeight="1169" math="1" shadow="0">
      <root>
        <mxCell id="0" />
        <mxCell id="1" parent="0" />
        <mxCell id="xi21bc6BXq5oPoSZA3L_-1" value="$$\mathcal{A} \ni \mathcal{a}_{(x,y,z,t)}$$" style="text;html=1;strokeColor=none;fillColor=none;align=center;verticalAlign=middle;whiteSpace=wrap;rounded=0;" parent="1" vertex="1">
          <mxGeometry x="120" y="155" width="60" height="30" as="geometry" />
        </mxCell>
        <mxCell id="xi21bc6BXq5oPoSZA3L_-2" value="" style="endArrow=classic;html=1;rounded=0;" parent="1" edge="1">
          <mxGeometry width="50" height="50" relative="1" as="geometry">
            <mxPoint x="190" y="174.8" as="sourcePoint" />
            <mxPoint x="240" y="174.8" as="targetPoint" />
          </mxGeometry>
        </mxCell>
        <mxCell id="xi21bc6BXq5oPoSZA3L_-3" value="$$\mathcal{E}$$" style="text;html=1;strokeColor=none;fillColor=none;align=center;verticalAlign=middle;whiteSpace=wrap;rounded=0;" parent="1" vertex="1">
          <mxGeometry x="180" y="140" width="60" height="30" as="geometry" />
        </mxCell>
        <mxCell id="xi21bc6BXq5oPoSZA3L_-5" value="" style="shape=trapezoid;perimeter=trapezoidPerimeter;whiteSpace=wrap;html=1;fixedSize=1;rotation=-90;" parent="1" vertex="1">
          <mxGeometry x="230" y="155" width="100" height="40" as="geometry" />
        </mxCell>
        <mxCell id="xi21bc6BXq5oPoSZA3L_-6" value="NN" style="text;html=1;strokeColor=none;fillColor=none;align=center;verticalAlign=middle;whiteSpace=wrap;rounded=0;" parent="1" vertex="1">
          <mxGeometry x="250" y="220" width="60" height="30" as="geometry" />
        </mxCell>
        <mxCell id="xi21bc6BXq5oPoSZA3L_-8" value="" style="endArrow=classic;html=1;rounded=0;" parent="1" edge="1">
          <mxGeometry width="50" height="50" relative="1" as="geometry">
            <mxPoint x="310" y="174.8" as="sourcePoint" />
            <mxPoint x="360" y="174.8" as="targetPoint" />
          </mxGeometry>
        </mxCell>
        <mxCell id="xi21bc6BXq5oPoSZA3L_-9" value="$$\mathcal{D}$$" style="text;html=1;strokeColor=none;fillColor=none;align=center;verticalAlign=middle;whiteSpace=wrap;rounded=0;" parent="1" vertex="1">
          <mxGeometry x="300" y="140" width="60" height="30" as="geometry" />
        </mxCell>
        <mxCell id="xi21bc6BXq5oPoSZA3L_-10" value="$$ \mathcal{u}_{(x,y,z,t)} \in \mathcal{U}$$" style="text;html=1;strokeColor=none;fillColor=none;align=center;verticalAlign=middle;whiteSpace=wrap;rounded=0;" parent="1" vertex="1">
          <mxGeometry x="370" y="155" width="60" height="30" as="geometry" />
        </mxCell>
        <mxCell id="hSPFRzSx_htsS9gy9i06-15" value="" style="endArrow=classic;html=1;rounded=0;" edge="1" parent="1">
          <mxGeometry width="50" height="50" relative="1" as="geometry">
            <mxPoint x="243.5" y="666.76" as="sourcePoint" />
            <mxPoint x="293.5" y="667.05" as="targetPoint" />
          </mxGeometry>
        </mxCell>
        <mxCell id="hSPFRzSx_htsS9gy9i06-16" value="" style="shape=trapezoid;perimeter=trapezoidPerimeter;whiteSpace=wrap;html=1;fixedSize=1;rotation=-90;" vertex="1" parent="1">
          <mxGeometry x="267.5" y="637" width="120" height="60" as="geometry" />
        </mxCell>
        <mxCell id="hSPFRzSx_htsS9gy9i06-17" value="NN" style="text;html=1;align=center;verticalAlign=middle;resizable=0;points=[];autosize=1;strokeColor=none;fillColor=none;" vertex="1" parent="1">
          <mxGeometry x="307.5" y="727" width="40" height="30" as="geometry" />
        </mxCell>
        <mxCell id="hSPFRzSx_htsS9gy9i06-18" value="" style="endArrow=classic;html=1;rounded=0;fillColor=#cce5ff;strokeColor=#FF3333;strokeWidth=3;startArrow=none;startFill=0;" edge="1" parent="1">
          <mxGeometry width="50" height="50" relative="1" as="geometry">
            <mxPoint x="61" y="666.76" as="sourcePoint" />
            <mxPoint x="108" y="666.76" as="targetPoint" />
          </mxGeometry>
        </mxCell>
        <mxCell id="hSPFRzSx_htsS9gy9i06-19" value="" style="ellipse;whiteSpace=wrap;html=1;" vertex="1" parent="1">
          <mxGeometry x="-40" y="607.5" width="73" height="119" as="geometry" />
        </mxCell>
        <mxCell id="hSPFRzSx_htsS9gy9i06-20" value="$$初始条件\mathcal{A}$$" style="text;html=1;strokeColor=none;fillColor=none;align=center;verticalAlign=middle;whiteSpace=wrap;rounded=0;" vertex="1" parent="1">
          <mxGeometry x="-36" y="652" width="60" height="30" as="geometry" />
        </mxCell>
        <mxCell id="hSPFRzSx_htsS9gy9i06-21" value="&lt;font color=&quot;#ff0000&quot;&gt;$$\mathcal{A} \ni \mathcal{a}_{i}$$&lt;/font&gt;" style="text;html=1;strokeColor=none;fillColor=none;align=center;verticalAlign=middle;whiteSpace=wrap;rounded=0;" vertex="1" parent="1">
          <mxGeometry x="54" y="627" width="60" height="30" as="geometry" />
        </mxCell>
        <mxCell id="hSPFRzSx_htsS9gy9i06-22" value="&lt;font color=&quot;#009900&quot;&gt;真解&lt;/font&gt;" style="text;html=1;strokeColor=none;fillColor=none;align=center;verticalAlign=middle;whiteSpace=wrap;rounded=0;" vertex="1" parent="1">
          <mxGeometry x="587.29" y="638" width="60" height="30" as="geometry" />
        </mxCell>
        <mxCell id="hSPFRzSx_htsS9gy9i06-23" value="&lt;b&gt;&lt;font color=&quot;#0000cc&quot; style=&quot;font-size: 21px;&quot;&gt;Loss&lt;/font&gt;&lt;/b&gt;" style="text;html=1;strokeColor=none;fillColor=none;align=center;verticalAlign=middle;whiteSpace=wrap;rounded=0;" vertex="1" parent="1">
          <mxGeometry x="707" y="652" width="60" height="30" as="geometry" />
        </mxCell>
        <mxCell id="hSPFRzSx_htsS9gy9i06-24" value="" style="shape=image;verticalLabelPosition=bottom;labelBackgroundColor=default;verticalAlign=top;aspect=fixed;imageAspect=0;image=https://fastly.jsdelivr.net/gh/5huanghuai/Image@main/image/1672112275548init.png;" vertex="1" parent="1">
          <mxGeometry x="129" y="621.25" width="91.69" height="91.51" as="geometry" />
        </mxCell>
        <mxCell id="hSPFRzSx_htsS9gy9i06-25" value="" style="endArrow=classic;html=1;rounded=0;" edge="1" parent="1">
          <mxGeometry width="50" height="50" relative="1" as="geometry">
            <mxPoint x="371" y="668.15" as="sourcePoint" />
            <mxPoint x="431" y="668.15" as="targetPoint" />
          </mxGeometry>
        </mxCell>
        <mxCell id="hSPFRzSx_htsS9gy9i06-26" value="" style="shape=image;verticalLabelPosition=bottom;labelBackgroundColor=default;verticalAlign=top;aspect=fixed;imageAspect=0;image=https://fastly.jsdelivr.net/gh/5huanghuai/Image@main/image/1672112404646pred.png;" vertex="1" parent="1">
          <mxGeometry x="440" y="624.01" width="88.91" height="88.75" as="geometry" />
        </mxCell>
        <mxCell id="hSPFRzSx_htsS9gy9i06-27" value="&lt;font color=&quot;#ff0000&quot;&gt;预测解&lt;/font&gt;" style="text;html=1;strokeColor=none;fillColor=none;align=center;verticalAlign=middle;whiteSpace=wrap;rounded=0;" vertex="1" parent="1">
          <mxGeometry x="454.46000000000004" y="723" width="60" height="30" as="geometry" />
        </mxCell>
        <mxCell id="hSPFRzSx_htsS9gy9i06-28" value="" style="shape=image;verticalLabelPosition=bottom;labelBackgroundColor=default;verticalAlign=top;aspect=fixed;imageAspect=0;image=https://fastly.jsdelivr.net/gh/5huanghuai/Image@main/image/1672112478708label.png;" vertex="1" parent="1">
          <mxGeometry x="573" y="551" width="88.58" height="88.75" as="geometry" />
        </mxCell>
        <mxCell id="hSPFRzSx_htsS9gy9i06-29" value="" style="endArrow=classic;html=1;rounded=0;" edge="1" parent="1">
          <mxGeometry width="50" height="50" relative="1" as="geometry">
            <mxPoint x="539" y="667.97" as="sourcePoint" />
            <mxPoint x="709" y="667.97" as="targetPoint" />
          </mxGeometry>
        </mxCell>
        <mxCell id="hSPFRzSx_htsS9gy9i06-30" value="&lt;font color=&quot;#ff0000&quot;&gt;初始条件&lt;/font&gt;" style="text;html=1;strokeColor=none;fillColor=none;align=center;verticalAlign=middle;whiteSpace=wrap;rounded=0;" vertex="1" parent="1">
          <mxGeometry x="144.85" y="723" width="60" height="30" as="geometry" />
        </mxCell>
        <mxCell id="hSPFRzSx_htsS9gy9i06-39" value="$$\mathcal{A} \ni \mathcal{a}_{(x,y,z,t)}$$" style="text;html=1;strokeColor=none;fillColor=none;align=center;verticalAlign=middle;whiteSpace=wrap;rounded=0;" vertex="1" parent="1">
          <mxGeometry x="70" y="325" width="60" height="30" as="geometry" />
        </mxCell>
        <mxCell id="hSPFRzSx_htsS9gy9i06-40" value="" style="endArrow=classic;html=1;rounded=0;" edge="1" parent="1">
          <mxGeometry width="50" height="50" relative="1" as="geometry">
            <mxPoint x="140" y="344.79999999999995" as="sourcePoint" />
            <mxPoint x="190" y="344.79999999999995" as="targetPoint" />
          </mxGeometry>
        </mxCell>
        <mxCell id="hSPFRzSx_htsS9gy9i06-41" value="$$\mathcal{E}$$" style="text;html=1;strokeColor=none;fillColor=none;align=center;verticalAlign=middle;whiteSpace=wrap;rounded=0;" vertex="1" parent="1">
          <mxGeometry x="130" y="310" width="60" height="30" as="geometry" />
        </mxCell>
        <mxCell id="hSPFRzSx_htsS9gy9i06-42" value="" style="shape=trapezoid;perimeter=trapezoidPerimeter;whiteSpace=wrap;html=1;fixedSize=1;rotation=-90;" vertex="1" parent="1">
          <mxGeometry x="180" y="325" width="100" height="40" as="geometry" />
        </mxCell>
        <mxCell id="hSPFRzSx_htsS9gy9i06-43" value="NN" style="text;html=1;strokeColor=none;fillColor=none;align=center;verticalAlign=middle;whiteSpace=wrap;rounded=0;" vertex="1" parent="1">
          <mxGeometry x="200" y="390" width="60" height="30" as="geometry" />
        </mxCell>
        <mxCell id="hSPFRzSx_htsS9gy9i06-44" value="" style="endArrow=classic;html=1;rounded=0;" edge="1" parent="1">
          <mxGeometry width="50" height="50" relative="1" as="geometry">
            <mxPoint x="260" y="344.79999999999995" as="sourcePoint" />
            <mxPoint x="310" y="344.79999999999995" as="targetPoint" />
          </mxGeometry>
        </mxCell>
        <mxCell id="hSPFRzSx_htsS9gy9i06-45" value="$$\mathcal{D}$$" style="text;html=1;strokeColor=none;fillColor=none;align=center;verticalAlign=middle;whiteSpace=wrap;rounded=0;" vertex="1" parent="1">
          <mxGeometry x="250" y="310" width="60" height="30" as="geometry" />
        </mxCell>
        <mxCell id="hSPFRzSx_htsS9gy9i06-46" value="$$ \mathcal{u}_{(x,y,z,t)} \in \mathcal{U}$$" style="text;html=1;strokeColor=none;fillColor=none;align=center;verticalAlign=middle;whiteSpace=wrap;rounded=0;" vertex="1" parent="1">
          <mxGeometry x="320" y="325" width="60" height="30" as="geometry" />
        </mxCell>
        <mxCell id="hSPFRzSx_htsS9gy9i06-63" value="$$\mathcal{A} \ni \mathcal{a}_{(x,y,z,t)}$$" style="text;html=1;strokeColor=none;fillColor=none;align=center;verticalAlign=middle;whiteSpace=wrap;rounded=0;" vertex="1" parent="1">
          <mxGeometry x="120" y="140" width="60" height="30" as="geometry" />
        </mxCell>
        <mxCell id="hSPFRzSx_htsS9gy9i06-64" value="" style="endArrow=classic;html=1;rounded=0;" edge="1" parent="1">
          <mxGeometry width="50" height="50" relative="1" as="geometry">
            <mxPoint x="190" y="154.79999999999995" as="sourcePoint" />
            <mxPoint x="240" y="154.79999999999995" as="targetPoint" />
          </mxGeometry>
        </mxCell>
        <mxCell id="hSPFRzSx_htsS9gy9i06-65" value="" style="shape=trapezoid;perimeter=trapezoidPerimeter;whiteSpace=wrap;html=1;fixedSize=1;rotation=-90;fillColor=#B266FF;strokeColor=#56517e;" vertex="1" parent="1">
          <mxGeometry x="230" y="135" width="100" height="40" as="geometry" />
        </mxCell>
        <mxCell id="hSPFRzSx_htsS9gy9i06-66" value="&amp;nbsp;$$\mathcal{G}_{\theta}$$" style="text;html=1;strokeColor=none;fillColor=none;align=center;verticalAlign=middle;whiteSpace=wrap;rounded=0;" vertex="1" parent="1">
          <mxGeometry x="245" y="210" width="70" height="30" as="geometry" />
        </mxCell>
        <mxCell id="hSPFRzSx_htsS9gy9i06-67" value="" style="endArrow=classic;html=1;rounded=0;" edge="1" parent="1">
          <mxGeometry width="50" height="50" relative="1" as="geometry">
            <mxPoint x="310" y="154.79999999999995" as="sourcePoint" />
            <mxPoint x="360" y="154.79999999999995" as="targetPoint" />
          </mxGeometry>
        </mxCell>
        <mxCell id="hSPFRzSx_htsS9gy9i06-68" value="$$ \mathcal{u}_{(x,y,z,t)} \in \mathcal{U}$$" style="text;html=1;strokeColor=none;fillColor=none;align=center;verticalAlign=middle;whiteSpace=wrap;rounded=0;" vertex="1" parent="1">
          <mxGeometry x="370" y="135" width="60" height="30" as="geometry" />
        </mxCell>
        <mxCell id="hSPFRzSx_htsS9gy9i06-77" value="" style="endArrow=classic;html=1;rounded=0;" edge="1" parent="1">
          <mxGeometry width="50" height="50" relative="1" as="geometry">
            <mxPoint x="230.5" y="1025.76" as="sourcePoint" />
            <mxPoint x="280.5" y="1026.05" as="targetPoint" />
          </mxGeometry>
        </mxCell>
        <mxCell id="hSPFRzSx_htsS9gy9i06-78" value="" style="endArrow=classic;html=1;rounded=0;fillColor=#cce5ff;strokeColor=#FF3333;strokeWidth=3;startArrow=none;startFill=0;" edge="1" parent="1">
          <mxGeometry width="50" height="50" relative="1" as="geometry">
            <mxPoint x="48" y="1025.76" as="sourcePoint" />
            <mxPoint x="95" y="1025.76" as="targetPoint" />
          </mxGeometry>
        </mxCell>
        <mxCell id="hSPFRzSx_htsS9gy9i06-79" value="" style="ellipse;whiteSpace=wrap;html=1;" vertex="1" parent="1">
          <mxGeometry x="-53" y="966.5" width="73" height="119" as="geometry" />
        </mxCell>
        <mxCell id="hSPFRzSx_htsS9gy9i06-80" value="$$初始条件\mathcal{A}$$" style="text;html=1;strokeColor=none;fillColor=none;align=center;verticalAlign=middle;whiteSpace=wrap;rounded=0;" vertex="1" parent="1">
          <mxGeometry x="-49" y="1011" width="60" height="30" as="geometry" />
        </mxCell>
        <mxCell id="hSPFRzSx_htsS9gy9i06-81" value="&lt;font color=&quot;#ff0000&quot;&gt;$$\mathcal{A} \ni \mathcal{a}_{i}$$&lt;/font&gt;" style="text;html=1;strokeColor=none;fillColor=none;align=center;verticalAlign=middle;whiteSpace=wrap;rounded=0;" vertex="1" parent="1">
          <mxGeometry x="41" y="986" width="60" height="30" as="geometry" />
        </mxCell>
        <mxCell id="hSPFRzSx_htsS9gy9i06-82" value="" style="shape=image;verticalLabelPosition=bottom;labelBackgroundColor=default;verticalAlign=top;aspect=fixed;imageAspect=0;image=https://fastly.jsdelivr.net/gh/5huanghuai/Image@main/image/1672112275548init.png;" vertex="1" parent="1">
          <mxGeometry x="116" y="980.25" width="91.69" height="91.51" as="geometry" />
        </mxCell>
        <mxCell id="hSPFRzSx_htsS9gy9i06-83" value="&lt;font color=&quot;#ff0000&quot;&gt;初始条件&lt;/font&gt;" style="text;html=1;strokeColor=none;fillColor=none;align=center;verticalAlign=middle;whiteSpace=wrap;rounded=0;" vertex="1" parent="1">
          <mxGeometry x="131.85000000000002" y="1082" width="60" height="30" as="geometry" />
        </mxCell>
        <mxCell id="hSPFRzSx_htsS9gy9i06-84" value="" style="shape=trapezoid;perimeter=trapezoidPerimeter;whiteSpace=wrap;html=1;fixedSize=1;rotation=-90;fillColor=#B266FF;strokeColor=#56517e;" vertex="1" parent="1">
          <mxGeometry x="257" y="1007" width="100" height="40" as="geometry" />
        </mxCell>
        <mxCell id="hSPFRzSx_htsS9gy9i06-86" value="&lt;font color=&quot;#009900&quot;&gt;真解&lt;/font&gt;" style="text;html=1;strokeColor=none;fillColor=none;align=center;verticalAlign=middle;whiteSpace=wrap;rounded=0;" vertex="1" parent="1">
          <mxGeometry x="573.29" y="997" width="60" height="30" as="geometry" />
        </mxCell>
        <mxCell id="hSPFRzSx_htsS9gy9i06-87" value="&lt;b&gt;&lt;font color=&quot;#0000cc&quot; style=&quot;font-size: 21px;&quot;&gt;Loss&lt;/font&gt;&lt;/b&gt;" style="text;html=1;strokeColor=none;fillColor=none;align=center;verticalAlign=middle;whiteSpace=wrap;rounded=0;" vertex="1" parent="1">
          <mxGeometry x="693" y="1011" width="60" height="30" as="geometry" />
        </mxCell>
        <mxCell id="hSPFRzSx_htsS9gy9i06-88" value="" style="endArrow=classic;html=1;rounded=0;" edge="1" parent="1">
          <mxGeometry width="50" height="50" relative="1" as="geometry">
            <mxPoint x="356.99999999999955" y="1027.15" as="sourcePoint" />
            <mxPoint x="416.99999999999955" y="1027.15" as="targetPoint" />
          </mxGeometry>
        </mxCell>
        <mxCell id="hSPFRzSx_htsS9gy9i06-89" value="" style="shape=image;verticalLabelPosition=bottom;labelBackgroundColor=default;verticalAlign=top;aspect=fixed;imageAspect=0;image=https://fastly.jsdelivr.net/gh/5huanghuai/Image@main/image/1672112404646pred.png;" vertex="1" parent="1">
          <mxGeometry x="426" y="983.01" width="88.91" height="88.75" as="geometry" />
        </mxCell>
        <mxCell id="hSPFRzSx_htsS9gy9i06-90" value="&lt;font color=&quot;#ff0000&quot;&gt;预测解&lt;/font&gt;" style="text;html=1;strokeColor=none;fillColor=none;align=center;verticalAlign=middle;whiteSpace=wrap;rounded=0;" vertex="1" parent="1">
          <mxGeometry x="440.46000000000004" y="1082" width="60" height="30" as="geometry" />
        </mxCell>
        <mxCell id="hSPFRzSx_htsS9gy9i06-91" value="" style="shape=image;verticalLabelPosition=bottom;labelBackgroundColor=default;verticalAlign=top;aspect=fixed;imageAspect=0;image=https://fastly.jsdelivr.net/gh/5huanghuai/Image@main/image/1672112478708label.png;" vertex="1" parent="1">
          <mxGeometry x="559" y="910" width="88.58" height="88.75" as="geometry" />
        </mxCell>
        <mxCell id="hSPFRzSx_htsS9gy9i06-92" value="" style="endArrow=classic;html=1;rounded=0;" edge="1" parent="1">
          <mxGeometry width="50" height="50" relative="1" as="geometry">
            <mxPoint x="525" y="1026.97" as="sourcePoint" />
            <mxPoint x="695" y="1026.97" as="targetPoint" />
          </mxGeometry>
        </mxCell>
        <mxCell id="hSPFRzSx_htsS9gy9i06-93" value="&lt;font style=&quot;font-size: 16px;&quot; color=&quot;#cc00cc&quot;&gt;算子&lt;/font&gt;" style="text;html=1;strokeColor=none;fillColor=none;align=center;verticalAlign=middle;whiteSpace=wrap;rounded=0;" vertex="1" parent="1">
          <mxGeometry x="272" y="1082" width="70" height="30" as="geometry" />
        </mxCell>
        <mxCell id="hSPFRzSx_htsS9gy9i06-94" value="" style="rounded=0;whiteSpace=wrap;html=1;fillColor=#fad7ac;strokeColor=#b46504;" vertex="1" parent="1">
          <mxGeometry x="1405" y="898" width="309" height="232" as="geometry" />
        </mxCell>
        <mxCell id="hSPFRzSx_htsS9gy9i06-95" value="" style="ellipse;whiteSpace=wrap;html=1;aspect=fixed;" vertex="1" parent="1">
          <mxGeometry x="1284" y="910.25" width="50.5" height="50.5" as="geometry" />
        </mxCell>
        <mxCell id="hSPFRzSx_htsS9gy9i06-97" value="" style="endArrow=classic;html=1;rounded=0;" edge="1" parent="1">
          <mxGeometry width="50" height="50" relative="1" as="geometry">
            <mxPoint x="1055" y="941.5500000000002" as="sourcePoint" />
            <mxPoint x="1105" y="941.5500000000002" as="targetPoint" />
          </mxGeometry>
        </mxCell>
        <mxCell id="hSPFRzSx_htsS9gy9i06-98" value="" style="endArrow=classic;html=1;rounded=0;" edge="1" parent="1">
          <mxGeometry width="50" height="50" relative="1" as="geometry">
            <mxPoint x="1210" y="941.3500000000004" as="sourcePoint" />
            <mxPoint x="1260" y="941.3500000000004" as="targetPoint" />
          </mxGeometry>
        </mxCell>
        <mxCell id="hSPFRzSx_htsS9gy9i06-99" value="&lt;font style=&quot;font-size: 20px;&quot;&gt;$$\mathcal{u}^{&#39;}_{i}$$&lt;/font&gt;" style="text;html=1;strokeColor=none;fillColor=none;align=center;verticalAlign=middle;whiteSpace=wrap;rounded=0;" vertex="1" parent="1">
          <mxGeometry x="1279.25" y="924.25" width="60" height="30" as="geometry" />
        </mxCell>
        <mxCell id="hSPFRzSx_htsS9gy9i06-100" value="" style="ellipse;whiteSpace=wrap;html=1;aspect=fixed;" vertex="1" parent="1">
          <mxGeometry x="1000" y="915.5" width="45" height="45" as="geometry" />
        </mxCell>
        <mxCell id="hSPFRzSx_htsS9gy9i06-101" value="" style="endArrow=classic;html=1;rounded=0;entryX=0;entryY=0.5;entryDx=0;entryDy=0;" edge="1" parent="1" target="hSPFRzSx_htsS9gy9i06-110">
          <mxGeometry width="50" height="50" relative="1" as="geometry">
            <mxPoint x="1346" y="923.5" as="sourcePoint" />
            <mxPoint x="1755" y="946.75" as="targetPoint" />
          </mxGeometry>
        </mxCell>
        <mxCell id="hSPFRzSx_htsS9gy9i06-102" value="&lt;font style=&quot;font-size: 20px;&quot;&gt;pred&lt;/font&gt;" style="text;html=1;strokeColor=none;fillColor=none;align=center;verticalAlign=middle;whiteSpace=wrap;rounded=0;" vertex="1" parent="1">
          <mxGeometry x="1279.26" y="967" width="60" height="30" as="geometry" />
        </mxCell>
        <mxCell id="hSPFRzSx_htsS9gy9i06-103" value="&lt;font style=&quot;font-size: 20px;&quot;&gt;input&lt;/font&gt;" style="text;html=1;strokeColor=none;fillColor=none;align=center;verticalAlign=middle;whiteSpace=wrap;rounded=0;" vertex="1" parent="1">
          <mxGeometry x="992.5" y="885.5" width="60" height="30" as="geometry" />
        </mxCell>
        <mxCell id="hSPFRzSx_htsS9gy9i06-104" value="" style="ellipse;whiteSpace=wrap;html=1;fillColor=none;" vertex="1" parent="1">
          <mxGeometry x="1842" y="970.5" width="120" height="80" as="geometry" />
        </mxCell>
        <mxCell id="hSPFRzSx_htsS9gy9i06-105" value="&lt;font style=&quot;font-size: 20px;&quot;&gt;Loss&lt;/font&gt;" style="text;html=1;strokeColor=none;fillColor=none;align=center;verticalAlign=middle;whiteSpace=wrap;rounded=0;" vertex="1" parent="1">
          <mxGeometry x="1872" y="995.5" width="60" height="30" as="geometry" />
        </mxCell>
        <mxCell id="hSPFRzSx_htsS9gy9i06-106" value="" style="endArrow=classic;html=1;rounded=0;" edge="1" parent="1">
          <mxGeometry width="50" height="50" relative="1" as="geometry">
            <mxPoint x="1347" y="939.8699999999999" as="sourcePoint" />
            <mxPoint x="1507" y="941.1199999999999" as="targetPoint" />
          </mxGeometry>
        </mxCell>
        <mxCell id="hSPFRzSx_htsS9gy9i06-107" value="" style="endArrow=classic;html=1;rounded=0;fontSize=17;" edge="1" parent="1">
          <mxGeometry width="50" height="50" relative="1" as="geometry">
            <mxPoint x="1731" y="1010.5" as="sourcePoint" />
            <mxPoint x="1832" y="1010.5" as="targetPoint" />
          </mxGeometry>
        </mxCell>
        <mxCell id="hSPFRzSx_htsS9gy9i06-108" value="" style="endArrow=none;html=1;rounded=0;fontSize=17;endFill=0;" edge="1" parent="1">
          <mxGeometry width="50" height="50" relative="1" as="geometry">
            <mxPoint x="1491" y="830.5" as="sourcePoint" />
            <mxPoint x="1902" y="830.5" as="targetPoint" />
          </mxGeometry>
        </mxCell>
        <mxCell id="hSPFRzSx_htsS9gy9i06-109" value="" style="endArrow=classic;html=1;rounded=0;fontSize=17;" edge="1" parent="1">
          <mxGeometry width="50" height="50" relative="1" as="geometry">
            <mxPoint x="1901.8999999999996" y="830.1199999999999" as="sourcePoint" />
            <mxPoint x="1901.8999999999996" y="960.8700000000003" as="targetPoint" />
          </mxGeometry>
        </mxCell>
        <mxCell id="hSPFRzSx_htsS9gy9i06-110" value="" style="ellipse;whiteSpace=wrap;html=1;aspect=fixed;" vertex="1" parent="1">
          <mxGeometry x="1430.75" y="800" width="50.5" height="50.5" as="geometry" />
        </mxCell>
        <mxCell id="hSPFRzSx_htsS9gy9i06-111" value="&lt;font style=&quot;font-size: 20px;&quot;&gt;label&lt;/font&gt;" style="text;html=1;strokeColor=none;fillColor=none;align=center;verticalAlign=middle;whiteSpace=wrap;rounded=0;" vertex="1" parent="1">
          <mxGeometry x="1427" y="810.5" width="60" height="30" as="geometry" />
        </mxCell>
        <mxCell id="hSPFRzSx_htsS9gy9i06-112" value="" style="endArrow=none;html=1;rounded=0;fontSize=17;endFill=0;" edge="1" parent="1">
          <mxGeometry width="50" height="50" relative="1" as="geometry">
            <mxPoint x="1025.380000000001" y="960.5" as="sourcePoint" />
            <mxPoint x="1025" y="1090.5" as="targetPoint" />
          </mxGeometry>
        </mxCell>
        <mxCell id="hSPFRzSx_htsS9gy9i06-113" value="&lt;font color=&quot;#006633&quot; style=&quot;font-size: 20px;&quot;&gt;$$ \mathcal{G}_{\theta_{0} }(a_{i}) $$&lt;/font&gt;" style="text;html=1;strokeColor=none;fillColor=none;align=center;verticalAlign=middle;whiteSpace=wrap;rounded=0;" vertex="1" parent="1">
          <mxGeometry x="1428.5" y="850.5" width="57" height="29.25" as="geometry" />
        </mxCell>
        <mxCell id="hSPFRzSx_htsS9gy9i06-114" value="&lt;font style=&quot;font-size: 20px;&quot;&gt;$$ \mathcal{L}_{oprator} $$&lt;/font&gt;" style="text;html=1;strokeColor=none;fillColor=none;align=center;verticalAlign=middle;whiteSpace=wrap;rounded=0;" vertex="1" parent="1">
          <mxGeometry x="1912" y="865.5" width="80" height="47.5" as="geometry" />
        </mxCell>
        <mxCell id="hSPFRzSx_htsS9gy9i06-115" value="" style="shape=trapezoid;perimeter=trapezoidPerimeter;whiteSpace=wrap;html=1;fixedSize=1;rotation=-90;fillColor=#B266FF;strokeColor=#9673a6;" vertex="1" parent="1">
          <mxGeometry x="1110" y="919.25" width="100" height="40" as="geometry" />
        </mxCell>
        <mxCell id="hSPFRzSx_htsS9gy9i06-116" value="&lt;font style=&quot;font-size: 20px;&quot;&gt;&amp;nbsp;$$\mathcal{G}_{\theta}$$&lt;/font&gt;" style="text;html=1;strokeColor=none;fillColor=none;align=center;verticalAlign=middle;whiteSpace=wrap;rounded=0;" vertex="1" parent="1">
          <mxGeometry x="1125" y="991.75" width="70" height="30" as="geometry" />
        </mxCell>
        <mxCell id="hSPFRzSx_htsS9gy9i06-117" value="" style="endArrow=classic;html=1;rounded=0;fontSize=17;" edge="1" parent="1">
          <mxGeometry width="50" height="50" relative="1" as="geometry">
            <mxPoint x="1025" y="1089.4499999999998" as="sourcePoint" />
            <mxPoint x="1472" y="1089.4499999999998" as="targetPoint" />
          </mxGeometry>
        </mxCell>
        <mxCell id="hSPFRzSx_htsS9gy9i06-118" value="&lt;font style=&quot;font-size: 20px;&quot;&gt;$$ \mathcal{L}_{PI} $$&lt;/font&gt;" style="text;html=1;strokeColor=none;fillColor=none;align=center;verticalAlign=middle;whiteSpace=wrap;rounded=0;" vertex="1" parent="1">
          <mxGeometry x="1752" y="1015.5" width="80" height="47.5" as="geometry" />
        </mxCell>
        <mxCell id="hSPFRzSx_htsS9gy9i06-119" value="" style="rounded=0;whiteSpace=wrap;html=1;fillColor=none;" vertex="1" parent="1">
          <mxGeometry x="1476.5" y="995" width="194.5" height="48.75" as="geometry" />
        </mxCell>
        <mxCell id="hSPFRzSx_htsS9gy9i06-120" value="&lt;font size=&quot;1&quot; style=&quot;&quot;&gt;&lt;b style=&quot;font-size: 20px;&quot;&gt;Physics-Informed&lt;/b&gt;&lt;/font&gt;" style="text;html=1;strokeColor=none;fillColor=none;align=center;verticalAlign=middle;whiteSpace=wrap;rounded=0;" vertex="1" parent="1">
          <mxGeometry x="1461.25" y="888" width="180" height="50" as="geometry" />
        </mxCell>
        <mxCell id="hSPFRzSx_htsS9gy9i06-121" value="&lt;font style=&quot;font-size: 16px;&quot;&gt;$$PDE:\frac{{\partial&amp;nbsp;&lt;br&gt;}^2 P&amp;nbsp; }{{\partial t}^{2}} - C^2 {\nabla}^{2} P =f(x)$$&lt;/font&gt;" style="text;html=1;strokeColor=none;fillColor=none;align=center;verticalAlign=middle;whiteSpace=wrap;rounded=0;" vertex="1" parent="1">
          <mxGeometry x="1483.75" y="946.75" width="140" height="30" as="geometry" />
        </mxCell>
        <mxCell id="hSPFRzSx_htsS9gy9i06-122" value="&lt;font style=&quot;font-size: 20px;&quot;&gt;Boundary-Condition&lt;/font&gt;" style="text;html=1;strokeColor=none;fillColor=none;align=center;verticalAlign=middle;whiteSpace=wrap;rounded=0;" vertex="1" parent="1">
          <mxGeometry x="1476.5" y="1009.8800000000001" width="199.25" height="20" as="geometry" />
        </mxCell>
        <mxCell id="hSPFRzSx_htsS9gy9i06-123" value="&lt;font style=&quot;font-size: 20px;&quot;&gt;Initial-Condition&lt;/font&gt;" style="text;html=1;strokeColor=none;fillColor=none;align=center;verticalAlign=middle;whiteSpace=wrap;rounded=0;" vertex="1" parent="1">
          <mxGeometry x="1506.13" y="1079.88" width="140.87" height="20" as="geometry" />
        </mxCell>
        <mxCell id="hSPFRzSx_htsS9gy9i06-124" value="" style="rounded=0;whiteSpace=wrap;html=1;fillColor=none;" vertex="1" parent="1">
          <mxGeometry x="1479.3200000000002" y="1061" width="194.5" height="48.75" as="geometry" />
        </mxCell>
        <mxCell id="hSPFRzSx_htsS9gy9i06-125" value="" style="shape=image;verticalLabelPosition=bottom;labelBackgroundColor=default;verticalAlign=top;aspect=fixed;imageAspect=0;image=https://fastly.jsdelivr.net/gh/5huanghuai/Image@main/image/1672112275548init.png;" vertex="1" parent="1">
          <mxGeometry x="900" y="873.38" width="91.69" height="91.51" as="geometry" />
        </mxCell>
        <mxCell id="hSPFRzSx_htsS9gy9i06-126" value="&lt;font color=&quot;#ff0000&quot;&gt;初始条件&lt;/font&gt;" style="text;html=1;strokeColor=none;fillColor=none;align=center;verticalAlign=middle;whiteSpace=wrap;rounded=0;" vertex="1" parent="1">
          <mxGeometry x="915.85" y="975.13" width="60" height="30" as="geometry" />
        </mxCell>
        <mxCell id="hSPFRzSx_htsS9gy9i06-127" value="" style="shape=image;verticalLabelPosition=bottom;labelBackgroundColor=default;verticalAlign=top;aspect=fixed;imageAspect=0;image=https://fastly.jsdelivr.net/gh/5huanghuai/Image@main/image/1672112404646pred.png;" vertex="1" parent="1">
          <mxGeometry x="1264.8" y="781.26" width="88.91" height="88.75" as="geometry" />
        </mxCell>
        <mxCell id="hSPFRzSx_htsS9gy9i06-128" value="&lt;font color=&quot;#ff0000&quot;&gt;预测解&lt;/font&gt;" style="text;html=1;strokeColor=none;fillColor=none;align=center;verticalAlign=middle;whiteSpace=wrap;rounded=0;" vertex="1" parent="1">
          <mxGeometry x="1279.26" y="880.25" width="60" height="30" as="geometry" />
        </mxCell>
        <mxCell id="hSPFRzSx_htsS9gy9i06-131" value="&lt;font style=&quot;font-size: 20px;&quot;&gt;$$\mathcal{a}_{i}$$&lt;/font&gt;" style="text;html=1;strokeColor=none;fillColor=none;align=center;verticalAlign=middle;whiteSpace=wrap;rounded=0;" vertex="1" parent="1">
          <mxGeometry x="992.5" y="920.5" width="60" height="30" as="geometry" />
        </mxCell>
      </root>
    </mxGraphModel>
  </diagram>
</mxfile>
